<svg xmlns="http://www.w3.org/2000/svg" viewBox="0 0 512 512">
  <path fill="#121212" d="M256 0C114.6 0 0 114.6 0 256s114.6 256 256 256 256-114.6 256-256S397.4 0 256 0z"/>
  
  <circle cx="256" cy="256" r="240" fill="none" stroke="#2979ff" stroke-width="20"/>
  
  <path fill="#2979ff" d="M256 128c-8.8 0-16 7.2-16 16v224c0 8.8 7.2 16 16 16s16-7.2 16-16V144c0-8.8-7.2-16-16-16z"/>
  <path fill="#2979ff" d="M192 192c-8.8 0-16 7.2-16 16v96c0 8.8 7.2 16 16 16s16-7.2 16-16v-96c0-8.8-7.2-16-16-16z"/>
  <path fill="#2979ff" d="M320 192c-8.8 0-16 7.2-16 16v96c0 8.8 7.2 16 16 16s16-7.2 16-16v-96c0-8.8-7.2-16-16-16z"/>
  
  <path fill="#ffd700" d="M256 330c-11 0-20 9-20 20v20c0 11 9 20 20 20s20-9 20-20v-20c0-11-9-20-20-20z"/>
</svg>
